<mxfile host="app.diagrams.net" modified="2023-09-07T06:53:54.889Z" agent="Mozilla/5.0 (Macintosh; Intel Mac OS X 10_15_7) AppleWebKit/537.36 (KHTML, like Gecko) Chrome/116.0.0.0 Safari/537.36" version="21.7.2" etag="HFwxO3jnWIxK87fqvX8L" type="github">
  <diagram name="Page-1" id="UpTkhmO2a9dFdJtEConz">
    <mxGraphModel>
      <root>
        <mxCell id="0" />
        <mxCell id="1" parent="0" />
      </root>
    </mxGraphModel>
  </diagram>
</mxfile>
